<?xml version="1.0" encoding="UTF-8"?>
<svg width="102px" height="102px" viewBox="0 0 102 102" version="1.1" xmlns="http://www.w3.org/2000/svg" xmlns:xlink="http://www.w3.org/1999/xlink">
    <title>effectLogoDark</title>
    <defs>
        <linearGradient x1="50%" y1="0%" x2="50%" y2="100%" id="linearGradient-1">
            <stop stop-color="#005FFF" offset="0%"></stop>
            <stop stop-color="#000000" offset="100%"></stop>
        </linearGradient>
    </defs>
    <g id="Page-1" stroke="none" stroke-width="1" fill="none" fill-rule="evenodd">
        <g id="effectLogoDark">
            <circle id="Oval" stroke="#FFFFFF" stroke-width="0.8" fill="url(#linearGradient-1)" cx="51" cy="51" r="50.6"></circle>
            <g id="undraw_festivities_tvvj-(1)" transform="translate(14.244141, 27.093750)" fill="#6C63FF" fill-rule="nonzero">
                <path d="M17.4202017,6.41434799 C16.8415314,5.62761357 15.6459317,6.48130411 16.1863427,7.29673401 C16.3274235,7.50955882 16.4828515,7.71520977 16.6287146,7.91368684 C18.4101582,10.3049769 19.3331612,13.2390897 20.1294307,16.1277681 C20.3231178,16.8451551 20.5120226,17.5912376 20.289641,18.2799291 C20.6076706,16.4051578 20.4020274,14.4682128 19.9213963,12.6269195 C19.4407652,10.7856262 18.6923198,9.03759315 17.9199624,7.2991253 C17.7848503,6.9874954 17.6173423,6.69093878 17.4202017,6.41434799 Z" id="Path" opacity="0.5"></path>
                <path d="M5.85875224,11.4743177 C4.6631525,11.4384483 4.50533334,13.2606114 5.70093307,13.356263 C6.0141802,13.3825671 6.33220973,13.389741 6.63350086,13.3969149 C10.3135568,13.4973491 13.7951433,14.8316889 17.1404313,16.2664629 C17.9606127,16.6179826 18.814271,17.0125454 19.2925109,17.7658018 C17.783664,16.0177688 15.7989684,14.7384286 13.6875393,13.7962603 C11.5761102,12.854092 9.32599147,12.2371392 7.07826397,11.6608383 C6.67957884,11.555331 6.27074637,11.4928013 5.85875224,11.4743177 L5.85875224,11.4743177 Z" id="Path"></path>
                <path d="M6.19112896,15.9460301 C5.43072753,15.9747255 5.60289389,17.0531974 6.36807772,17.0603712 C6.56654728,17.0603712 6.76740803,17.0603712 6.95631279,17.0436322 C9.27816748,16.9503719 11.6574109,17.5912376 13.9625272,18.2966682 C14.5292415,18.4688411 15.1270414,18.6649268 15.5383277,19.0881852 C14.313974,18.1427533 12.9263695,17.4302822 11.4445942,16.9862412 C9.98433385,16.5528138 8.4947462,16.225156 6.98739839,16.0058123 C6.72460552,15.9595984 6.45787596,15.9395729 6.19112896,15.9460301 L6.19112896,15.9460301 Z" id="Path" opacity="0.2"></path>
                <path d="M21.7243607,36.0113447 C21.9395687,36.7406882 22.9438724,36.3054734 22.7597501,35.5641735 C22.7119261,35.370479 22.6521461,35.1791758 22.5971485,34.9974378 C21.9300039,32.7711467 21.9610895,30.308118 22.0710846,27.9000889 C22.099779,27.307049 22.1404294,26.680531 22.4488941,26.1759688 C21.8367531,27.5969165 21.491447,29.1184283 21.4302432,30.6644202 C21.370556,32.1862396 21.4225045,33.7103873 21.5856711,35.2246103 C21.6056641,35.4908099 21.6521233,35.7543558 21.7243607,36.0113447 Z" id="Path" opacity="0.5"></path>
                <path d="M7.57324226,5.4028323 C7.11652316,5.32391973 7.08304636,5.98869836 7.53737426,6.09152383 C7.65693424,6.11782802 7.77649421,6.13695834 7.89127178,6.15608866 C9.29012347,6.39521767 10.6291952,7.07912662 11.9180517,7.79412234 C12.2498896,7.94504714 12.5384936,8.17692582 12.7573627,8.46846613 C12.1463316,7.74764192 11.4079158,7.14537659 10.57898,6.69173763 C9.7628053,6.24630719 8.91480462,5.861855 8.04191735,5.54152712 C7.89080623,5.47950256 7.73377083,5.43303114 7.57324226,5.4028323 Z" id="Path" opacity="0.2"></path>
                <path d="M0.519203823,23.0433789 C-0.640527919,23.6412014 0.339863863,25.2792351 1.5306812,24.7364122 C1.84153713,24.5929348 2.14521946,24.4327184 2.4369458,24.2820671 C5.97831221,22.4455564 10.0887841,21.7688213 14.1538232,21.2475201 C15.146171,21.1207817 16.2054723,21.0083911 17.1236929,21.4005626 C14.6201071,20.6951321 11.9515285,20.6353498 9.37381546,20.9366524 C6.79610243,21.2379549 4.28773419,21.8812119 1.80566914,22.5627296 C1.36185083,22.6795119 0.930870221,22.8405349 0.519203823,23.0433789 L0.519203823,23.0433789 Z" id="Path"></path>
                <path d="M3.83101509,29.4209494 C2.99887767,30.1981187 4.30925498,31.116374 5.17247799,30.3774654 C5.41159794,30.1837709 5.61963229,29.97812 5.82766664,29.7820342 C8.36712048,27.3907442 11.7219733,25.7024934 15.062479,24.1385897 C15.8826604,23.753592 19.2590341,23.3638118 20.1581251,23.3853334 C17.8051848,23.5957669 12.9988738,24.3418494 10.8611415,25.2983654 C8.76534329,26.2954478 6.73936163,27.4331083 4.79705967,28.7035624 C4.45312373,28.9116617 4.12966516,29.1518628 3.83101509,29.4209494 L3.83101509,29.4209494 Z" id="Path" opacity="0.5"></path>
                <path d="M9.77553697,39.5982798 C9.53641702,40.7102297 11.1217823,40.7269687 11.418291,39.6150188 C11.4948094,39.3256727 11.5569806,39.0315441 11.6167606,38.7517631 C12.3508588,35.3489574 14.1466496,32.0441946 16.0070028,28.8589963 C16.4637219,28.0770444 19.0175229,25.8364056 19.7707507,25.3414086 C17.9534391,26.8527039 14.4168551,30.1909448 13.2116906,32.204411 C12.0538006,34.2161891 11.0328352,36.3037349 10.1557377,38.4528519 C9.99409985,38.8221752 9.86682847,39.2056047 9.77553697,39.5982798 Z" id="Path"></path>
                <path d="M21.7387079,0.524600631 C21.1696024,-0.632783746 19.5483692,0.318949688 20.0648683,1.50502955 C20.1987754,1.81589725 20.349421,2.11959108 20.492893,2.40893718 C22.2408598,5.94565514 22.8410509,10.0323698 23.2905964,14.0521284 C23.4005915,15.0373399 23.4962395,16.0895075 23.094518,16.9958064 C23.826225,14.5208212 23.9242642,11.8784457 23.6707971,9.31976538 C23.4173299,6.76108504 22.8219213,4.26696954 22.1906446,1.79676693 C22.0827479,1.35871601 21.9313502,0.932543406 21.7387079,0.524600631 Z" id="Path"></path>
                <path d="M12.6975827,2.49263233 C12.7272697,2.51076629 12.7609101,2.52143315 12.7956219,2.5237191 C12.8601843,2.5237191 12.9032259,2.45915427 12.9295291,2.40176331 C13.0706098,2.09328689 12.9893091,1.6843763 13.2092994,1.44524729 C13.42856,1.70691972 13.6067492,2.00041883 13.7377545,2.31567687 L14.5698919,2.07654786 C14.6505521,2.40354366 14.5935021,2.74931451 14.4120727,3.03306388 C14.558783,3.09631526 14.6919297,3.18724814 14.8042294,3.30088836 C14.9194264,3.41604288 14.9592838,3.58660213 14.907051,3.74088573 C14.714633,3.78750118 14.5166152,3.80682072 14.318816,3.79827669 C14.3496303,4.16445515 14.3287009,4.5331491 14.2566448,4.89348752 C14.2526864,4.94757898 14.2267657,4.9976943 14.1849088,5.03218235 C14.1251288,5.07044299 14.043828,5.03218235 13.9816568,4.99870429 C13.6946342,4.8238091 13.4587562,4.57637531 13.2977738,4.28131728 L12.9869179,5.0202259 C12.9650544,5.09660269 12.9167433,5.16271507 12.8506195,5.20674652 C12.75318,5.24056758 12.6452743,5.20294765 12.5899787,5.1158775 C12.5378317,5.03118942 12.5066779,4.93526489 12.4991132,4.83609656 L12.3819444,4.13305729 C12.3805773,4.09628375 12.3671308,4.06098547 12.3436852,4.03262311 C12.3087776,4.00617738 12.2654003,3.99341885 12.221734,3.99675376 C11.9268194,3.99675376 11.6327019,3.99675376 11.3393814,3.99675376 C11.2891662,3.83892862 11.4445942,3.69545122 11.5952398,3.6284951 C11.7458853,3.56153898 11.9228341,3.51371317 11.9993525,3.36784448 C12.1523892,3.06893323 11.7602325,2.65045747 11.9252253,2.39937202 C12.1213036,2.07654786 12.4417244,2.36589396 12.6975827,2.49263233 Z" id="Path"></path>
                <path d="M28.7712255,6.41434799 C29.3498958,5.62761357 30.5454955,6.48130411 30.0050845,7.29673401 C29.8640037,7.50955882 29.7085757,7.71520977 29.5627126,7.91368684 C27.781269,10.3049769 26.8558748,13.2390897 26.0619965,16.1277681 C25.8659182,16.8451551 25.6770134,17.5912376 25.899395,18.2799291 C25.5813655,16.4051578 25.7893998,14.4682128 26.2700309,12.6269195 C26.750662,10.7856262 27.4991074,9.0256367 28.2714649,7.28716885 C28.40732,6.97967712 28.5748093,6.68716094 28.7712255,6.41434799 L28.7712255,6.41434799 Z" id="Path" opacity="0.5"></path>
                <path d="M40.3302838,11.4743177 C41.5258835,11.4384483 41.6860939,13.2606114 40.4881029,13.356263 C40.1748558,13.3825671 39.8592175,13.389741 39.5579263,13.3969149 C35.8754792,13.4973491 32.3962839,14.8316889 29.0509959,16.2664629 C28.2308145,16.6179826 27.3771563,17.0125454 26.8989164,17.7658018 C28.405372,16.0177688 30.3900676,14.7384286 32.5038879,13.7962603 C34.6177082,12.854092 36.8654357,12.2395305 39.1035984,11.6632296 C39.5045274,11.5564078 39.9157933,11.493072 40.3302838,11.4743177 Z" id="Path"></path>
                <path d="M40.0002982,15.9460301 C40.7583085,15.9747255 40.5885333,17.0531974 39.8233495,17.0603712 C39.6248799,17.0603712 39.4240192,17.0603712 39.2327232,17.0436322 C36.9108685,16.9503719 34.5340163,17.5912376 32.2289,18.2966682 C31.6621857,18.4688411 31.0643858,18.6649268 30.6530995,19.0881852 C31.8774532,18.1427533 33.2650577,17.4302822 34.746833,16.9862412 C36.207029,16.5525643 37.6966348,16.2249026 39.2040288,16.0058123 C39.4668217,15.9595984 39.7335512,15.9395729 40.0002982,15.9460301 Z" id="Path" opacity="0.5"></path>
                <path d="M38.6157938,5.4028323 C39.0749041,5.32391973 39.1083808,5.98869836 38.6540529,6.09152383 C38.534493,6.11782802 38.414933,6.13695834 38.2977642,6.15608866 C36.8989125,6.39521767 35.562232,7.07912662 34.2733755,7.79412234 C33.9415376,7.94504714 33.6529336,8.17692582 33.4340645,8.46846613 C34.044596,7.74713282 34.7831132,7.14478472 35.6124472,6.69173763 C36.4278031,6.24632049 37.275008,5.86186674 38.1471187,5.54152712 C38.2984514,5.48013395 38.4554228,5.43368145 38.6157938,5.4028323 Z" id="Path" opacity="0.2"></path>
                <path d="M26.7219676,37.3911191 C26.619146,37.8454642 25.9902606,37.6302481 26.0739525,37.1519901 C26.0954733,37.0300343 26.1217765,36.9128611 26.1480797,36.7980792 C26.4685005,35.4159135 26.3513317,33.9165747 26.1911213,32.4531052 C26.1788709,32.0885181 26.0761558,31.7326994 25.8922214,31.4176766 C26.3223767,32.2616015 26.5931294,33.1776557 26.690882,34.1198343 C26.7867561,35.0451631 26.8147283,35.9762716 26.774574,36.9056872 C26.7728502,37.0688227 26.7552315,37.2314019 26.7219676,37.3911191 Z" id="Path" opacity="0.2"></path>
                <path d="M38.3240674,34.3852675 C38.6803561,34.9902639 37.8051771,34.9472207 37.420194,34.3422243 C37.3173724,34.1843992 37.2265069,34.026574 37.1356413,33.8639663 C36.0500367,32.0154991 34.3953267,30.1861622 32.7310519,28.4189989 C32.3360614,27.9604253 31.8751021,27.5631149 31.3632858,27.2400929 C32.6672415,28.1261028 33.8700396,29.1525294 34.950085,30.3009441 C36.0189511,31.4200679 36.9634749,32.5846261 37.8888691,33.7491844 C38.0483389,33.9509888 38.1937478,34.1635175 38.3240674,34.3852675 L38.3240674,34.3852675 Z" id="Path" opacity="0.5"></path>
                <path d="M6.57372088,34.3852675 C6.21743216,34.9902639 7.09500236,34.9472207 7.47998548,34.3422243 C7.58041585,34.1843992 7.67367263,34.026574 7.76214701,33.8639663 C8.84775157,32.0154991 10.5024616,30.1861622 12.1691276,28.4189989 C12.563264,27.9604825 13.0234272,27.5631637 13.5345025,27.2400929 C12.2314973,28.1273483 11.0288292,29.153664 9.94770333,30.3009441 C8.87883717,31.4200679 7.93431338,32.5846261 7.01131038,33.7491844 C6.85108002,33.9509603 6.70487391,34.1634865 6.57372088,34.3852675 L6.57372088,34.3852675 Z" id="Path" opacity="0.2"></path>
                <path d="M18.1853855,37.3911191 C18.2882071,37.8454642 18.9147013,37.6302481 18.8334006,37.1519901 C18.8118798,37.0300343 18.7831854,36.9128611 18.7568822,36.7980792 C18.4388526,35.4159135 18.5536302,33.9165747 18.7162318,32.4531052 C18.7287382,32.08888 18.8305604,31.7333098 19.0127405,31.4176766 C18.582483,32.2615607 18.3117246,33.1776343 18.2140799,34.1198343 C18.1174166,35.0451051 18.0886452,35.9762132 18.1279967,36.9056872 C18.1313084,37.0689783 18.1505289,37.2315576 18.1853855,37.3911191 L18.1853855,37.3911191 Z" id="Path" opacity="0.2"></path>
                <path d="M34.9524762,9.94628337 C35.4091953,9.86497951 35.4426721,10.5321494 34.9883442,10.6325836 C34.8687842,10.6588878 34.7492242,10.6804094 34.6344466,10.6995397 C33.235595,10.9386687 31.8965232,11.6225777 30.6076667,12.3351821 C30.2767836,12.4876536 29.9885294,12.7192512 29.7683557,13.0095259 C30.379485,12.2894425 31.1179106,11.6879798 31.9467384,11.2351887 C32.7633541,10.7899636 33.6112801,10.4047461 34.4838011,10.0825869 C34.6349681,10.0212846 34.7920111,9.97561227 34.9524762,9.94628337 L34.9524762,9.94628337 Z" id="Path" opacity="0.2"></path>
                <path d="M30.6913587,1.02677154 C31.0859066,0.787642535 31.365677,1.38785633 30.9830851,1.65089824 C30.8802635,1.72024565 30.7774419,1.78481048 30.6770115,1.84459273 C29.4694558,2.58828393 28.4842816,3.7241467 27.5564962,4.86718333 C27.3059284,5.13235163 27.1244434,5.45509512 27.0280411,5.80696032 C27.3265814,4.91062565 27.7869258,4.07662509 28.3862424,3.34632287 C28.9736567,2.62841645 29.6130317,1.95464955 30.299202,1.33046537 C30.4199607,1.21698667 30.5512751,1.11529421 30.6913587,1.02677154 Z" id="Path" opacity="0.2"></path>
                <path d="M45.6722234,23.0433789 C46.8319551,23.6412014 45.8515633,25.2792351 44.660746,24.7364122 C44.3498901,24.5929348 44.0438165,24.4327184 43.7544814,24.2820671 C40.2107238,22.4455564 36.1026431,21.7688213 32.037604,21.2475201 C31.0452562,21.1207817 29.9859549,21.0083911 29.0677343,21.4005626 C31.5713201,20.6951321 34.2375075,20.6353498 36.8176118,20.9366524 C39.397716,21.2379549 41.9013018,21.8812119 44.3857581,22.5627296 C44.8294268,22.6799828 45.2603612,22.8409886 45.6722234,23.0433789 L45.6722234,23.0433789 Z" id="Path"></path>
                <path d="M42.3651945,29.4209494 C43.1973319,30.1981187 41.8869546,31.116374 41.0237316,30.3774654 C40.7846117,30.1837709 40.5765773,29.97812 40.368543,29.7820342 C37.8219155,27.3883529 34.4742363,25.6929282 31.126557,24.1290246 C30.3063756,23.7440269 26.930002,23.3542466 26.0285198,23.3757682 C28.3838512,23.5862017 33.1901622,24.3322842 35.3278945,25.2888002 C37.4236927,26.2858826 39.4496744,27.4235432 41.3919763,28.6939972 C41.7388057,28.9047468 42.0646942,29.1481715 42.3651945,29.4209494 L42.3651945,29.4209494 Z" id="Path" opacity="0.5"></path>
                <path d="M32.5421471,40.8680548 C32.6449687,42.0015263 31.0643858,41.8245708 30.9113491,40.6791429 C30.8706987,40.3826229 30.8467867,40.0837117 30.8204835,39.7991482 C30.5191924,36.3293863 29.1466439,32.8261464 27.7119242,29.4329059 C27.3556355,28.6007369 25.1031256,26.0564043 24.4168513,25.4729296 C26.030911,27.199441 29.1203407,30.9537663 30.0648645,33.1035361 C30.9620209,35.2440528 31.713767,37.4426539 32.3149832,39.6843662 C32.4272973,40.0710183 32.5033472,40.4672934 32.5421471,40.8680548 Z" id="Path"></path>
                <path d="M33.4914533,2.49263233 C33.4619341,2.51113169 33.4281993,2.52182848 33.3934141,2.5237191 C33.3312429,2.5237191 33.2882013,2.45915427 33.2618981,2.40176331 C33.1184262,2.09328689 33.199727,1.6843763 32.9821278,1.44524729 C32.7628672,1.70691972 32.584678,2.00041883 32.4536727,2.31567687 L31.6191441,2.07654786 C31.539621,2.40358727 31.5965968,2.74890787 31.7769633,3.03306388 C31.6305652,3.09688126 31.4975198,3.18774493 31.3848066,3.30088836 C31.2714652,3.41711238 31.23269,3.58699095 31.2843762,3.74088573 C31.4767942,3.78750118 31.674812,3.80682072 31.8726113,3.79827669 C31.8406229,4.16443822 31.8615618,4.53329878 31.9347824,4.89348752 C31.9387408,4.94757898 31.9646616,4.9976943 32.0065184,5.03218235 C32.0662984,5.07044299 32.1475992,5.03218235 32.2097704,4.99870429 C32.4954688,4.82217095 32.7309715,4.57513083 32.8936534,4.28131728 L33.2045094,5.0202259 C33.2245214,5.09749385 33.2732725,5.16420836 33.3408077,5.20674652 C33.4382472,5.24056758 33.5461529,5.20294765 33.6014485,5.1158775 C33.6525506,5.03071004 33.6836221,4.93503879 33.692314,4.83609656 L33.8094828,4.13305729 C33.8108499,4.09628375 33.8242964,4.06098547 33.847742,4.03262311 C33.8826496,4.00617738 33.9260269,3.99341885 33.9696932,3.99675376 C34.2646078,3.99675376 34.5587253,3.99675376 34.8520458,3.99675376 C34.902261,3.83892862 34.746833,3.69545122 34.5961874,3.6284951 C34.4455419,3.56153898 34.2662019,3.51371317 34.1920747,3.36784448 C34.039038,3.06893323 34.4311947,2.65045747 34.2662019,2.39937202 C34.0701236,2.07654786 33.7568764,2.36589396 33.4914533,2.49263233 Z" id="Path"></path>
                <path d="M36.0046039,36.7861227 C35.9747772,36.8035957 35.9411053,36.8134512 35.9065648,36.8148182 C35.8420024,36.8148182 35.7989608,36.7502534 35.7726576,36.6928624 C35.6315768,36.3867773 35.7128776,35.9874318 35.4952784,35.7363464 C35.2729807,36.002456 35.0938499,36.3018256 34.9644322,36.623515 L34.1322948,36.367647 C34.0519207,36.6946539 34.108952,37.0403111 34.2901139,37.324163 C34.1435132,37.3865439 34.0103519,37.4766747 33.8979572,37.5895962 C33.7842707,37.7055858 33.7446269,37.8752308 33.7951356,38.0295935 C33.9874396,38.0770132 34.185459,38.0971379 34.3833707,38.0893758 C34.3525267,38.4547592 34.3734573,38.8226681 34.4455419,39.1821953 C34.4508973,39.2365617 34.4765047,39.2869248 34.5172779,39.3232814 C34.5794491,39.3615421 34.6583586,39.3232814 34.7205298,39.2874121 C35.008056,39.1131426 35.2440794,38.8655562 35.4044129,38.5700251 L35.7152688,39.3089337 C35.737862,39.3849872 35.7870981,39.4503548 35.8539584,39.493063 C35.9501364,39.5279516 36.0576284,39.4911242 36.1122079,39.4045853 C36.1637004,39.3194154 36.1955587,39.2238369 36.2054647,39.1248044 L36.3202423,38.4193738 C36.3216094,38.3826003 36.3350558,38.347302 36.3585015,38.3189396 C36.3944737,38.2929772 36.4386997,38.2810698 36.4828438,38.2854616 C36.7745702,38.2854616 37.0686877,38.2735051 37.3628052,38.2854616 C37.4130204,38.1300277 37.2575925,37.984159 37.1069469,37.9172029 C36.9563013,37.8502468 36.7793526,37.802421 36.7028342,37.6565523 C36.5497974,37.3600323 36.9419541,36.9391653 36.7769614,36.7000363 C36.580883,36.3604731 36.2604623,36.6593843 36.0046039,36.7861227 Z" id="Path" opacity="0.2"></path>
                <path d="M43.0610336,13.793869 C43.031661,13.8123718 42.9977077,13.8223097 42.9629944,13.8225645 C42.898432,13.8225645 42.8553904,13.760391 42.8290872,13.703 C42.6880064,13.3945236 42.7693072,12.985613 42.5493169,12.746484 C42.3285415,13.0141135 42.1503005,13.3141505 42.0208618,13.6360439 L41.1887244,13.3777846 C41.1083504,13.7047915 41.1653816,14.0504487 41.3465435,14.3343006 C41.2004192,14.3975531 41.0674136,14.4875786 40.9543868,14.5997338 C40.8392849,14.7159248 40.7995053,14.8870761 40.8515653,15.0421224 C41.0439833,15.0887379 41.2420011,15.1080574 41.4398003,15.0995134 C41.4090496,15.4656927 41.4299785,15.8343777 41.5019715,16.1947242 C41.5059299,16.2488157 41.5318506,16.298931 41.5737075,16.3334191 C41.6334875,16.3716797 41.7147883,16.3334191 41.7769595,16.299941 C42.0639821,16.1250458 42.29986,15.877612 42.4608425,15.582554 L42.7716984,16.3214626 C42.7935619,16.3978394 42.841873,16.4639518 42.9079968,16.5079832 C43.0054338,16.5408898 43.1127755,16.5034665 43.1686375,16.4171142 C43.2207846,16.3324261 43.2519384,16.2365016 43.2595031,16.1373333 L43.3766719,15.4199463 C43.3785527,15.3840017 43.3919691,15.3496208 43.4149311,15.3219034 C43.4498387,15.2954576 43.493216,15.2826991 43.5368823,15.286034 C43.8309998,15.286034 44.1251173,15.286034 44.4192349,15.286034 C44.4694501,15.1306002 44.3140221,14.9847315 44.1633765,14.9201666 C44.012731,14.8556018 43.8357822,14.8053847 43.7592638,14.659516 C43.606227,14.3606048 43.9983838,13.942129 43.833391,13.703 C43.6373126,13.3753933 43.3216743,13.6719132 43.0610336,13.793869 Z" id="Path"></path>
                <path d="M14.8496622,40.2247978 C14.808446,40.2497652 14.7615225,40.2637605 14.7133639,40.2654497 C14.6248895,40.2654497 14.5651095,40.176972 14.5268503,40.0980594 C14.330772,39.6676272 14.4431583,39.1104566 14.139476,38.7493718 C13.8304719,39.1210392 13.5819304,39.5390567 13.4029866,39.9880601 L12.2360812,39.6198014 C12.1268421,40.0745108 12.2061913,40.5540742 12.4560716,40.9493587 C12.2516565,41.0380668 12.065863,41.1646384 11.9084869,41.3223999 C11.7509026,41.4841352 11.6965051,41.7201742 11.7674061,41.9345702 C12.0355633,42.0005587 12.3116293,42.0287298 12.5875875,42.0182653 C12.5444304,42.5275367 12.573411,43.0403512 12.6736707,43.5415171 C12.6790076,43.6171687 12.7153488,43.6872579 12.7741011,43.7352116 C12.8577931,43.7902112 12.9701795,43.7352116 13.0562626,43.689777 C13.4584116,43.4414493 13.7882514,43.0918059 14.0127424,42.6758701 L14.4455495,43.7065161 C14.4776152,43.8120929 14.5451989,43.9033343 14.6368455,43.9647754 C14.7714718,44.0127018 14.9213443,43.9610881 14.9979166,43.8404283 C15.0708754,43.7215281 15.1150889,43.5872452 15.1270414,43.4482568 L15.2872517,42.4678278 C15.2913991,42.4171589 15.3105458,42.3688741 15.3422493,42.329133 C15.3909502,42.2906913 15.4526856,42.2726844 15.5144157,42.2789159 C15.9233108,42.2789159 16.3322059,42.2645682 16.741101,42.2669595 C16.812837,42.0493521 16.5952378,41.8484837 16.3848123,41.7552234 C16.1743867,41.6619631 15.9280932,41.595007 15.8228804,41.3917473 C15.6076725,40.9780541 16.1600395,40.4017532 15.925702,40.0430597 C15.6554965,39.6341491 15.2083422,40.0478423 14.8496622,40.2247978 Z" id="Path"></path>
                <path d="M3.11365525,14.4849519 C3.07169418,14.5102128 3.02392353,14.5242151 2.97496568,14.5256038 C2.8888825,14.5256038 2.82671131,14.4371261 2.79084332,14.3582135 C2.59237376,13.9277813 2.70715134,13.3706107 2.403469,13.0095259 C2.09371727,13.3810992 1.84437316,13.7991094 1.66458837,14.2482141 L0.504856627,13.8871293 C0.393509712,14.3414642 0.472082967,14.8215563 0.722455778,15.2166866 C0.518752021,15.3054035 0.333744588,15.4319923 0.177262299,15.5897278 C0.0188357973,15.7509576 -0.0364988628,15.9870611 0.0337903314,16.2018981 C0.301947495,16.2678866 0.578013554,16.2960577 0.853971749,16.2855932 C0.810428819,16.7949618 0.840224119,17.3079435 0.942446129,17.808845 C0.936554595,17.9024777 0.991993751,17.9891386 1.07947012,18.023037 C1.1669465,18.0569354 1.26630193,18.0302596 1.32503804,17.957105 C1.727187,17.7087773 2.05702677,17.3591339 2.28151783,16.943198 L2.71193374,17.973844 C2.74270599,18.0807388 2.81162202,18.1726303 2.90562089,18.2321033 C3.04025057,18.2790966 3.18954251,18.2276829 3.26669201,18.1077563 C3.33930016,17.9888696 3.38272923,17.8544802 3.39342558,17.7155847 L3.55602715,16.7351558 C3.55841808,16.6845164 3.57684018,16.6359472 3.60863354,16.596461 C3.65768617,16.5588693 3.71938735,16.5417294 3.7807999,16.5486352 C4.18969501,16.5486352 4.59859012,16.5318961 5.00987643,16.5342874 C5.07922121,16.31668 4.86162206,16.1158117 4.6535877,16.0225513 C4.44555335,15.929291 4.19447741,15.8623349 4.08926463,15.6590753 C3.87644788,15.2453821 4.42881495,14.6690812 4.19447741,14.3103877 C3.91709827,13.8943032 3.46994397,14.3079964 3.11365525,14.4849519 Z" id="Path"></path>
                <path d="M38.7281801,30.4252912 C38.7066942,30.4389082 38.6818772,30.4463536 38.6564441,30.4468128 C38.6086202,30.4468128 38.5775346,30.398987 38.5560138,30.3583351 C38.450801,30.1192061 38.5129722,29.8346426 38.3503706,29.6409481 C38.1867723,29.8387901 38.0545131,30.0605746 37.9582139,30.2985529 L37.3412844,30.1072497 C37.2817098,30.3523842 37.3239811,30.6111976 37.4584532,30.8246367 C37.3500806,30.870387 37.2517683,30.9370144 37.1691181,31.0207224 C37.084647,31.106201 37.0551048,31.2317604 37.0925997,31.3459379 C37.2348471,31.3812486 37.381325,31.3965408 37.527798,31.3913724 C37.5054601,31.6616974 37.5215617,31.9338242 37.575622,32.1996284 C37.5779783,32.2397602 37.5970625,32.2770625 37.6282284,32.3024539 C37.6790071,32.3229085 37.7369248,32.3137148 37.7788739,32.278541 C37.9911779,32.145616 38.1657435,31.9603389 38.2858082,31.7405007 L38.5249282,32.2881062 C38.5406627,32.3442685 38.57638,32.3927438 38.6253586,32.4244097 C38.6970834,32.4502145 38.7771482,32.4235252 38.8190457,32.3598449 C38.8571212,32.2965949 38.8800373,32.2253884 38.8859993,32.1518026 L38.9720825,31.6305014 C38.9739241,31.6034566 38.9839299,31.5776075 39.0007769,31.5563714 C39.0260228,31.5352225 39.0590033,31.5256751 39.0916424,31.5300672 L39.7444399,31.5300672 C39.7803079,31.4152853 39.6655303,31.3076772 39.5531439,31.2598514 C39.4407576,31.2120256 39.314024,31.173765 39.254244,31.066157 C39.1418576,30.8461583 39.4359752,30.5400731 39.3116328,30.3487699 C39.1872904,30.1574667 38.9170849,30.3296396 38.7281801,30.4252912 Z" id="Path" opacity="0.2"></path>
                <path d="M22.7836621,39.6317579 C22.7614016,39.6435885 22.7370225,39.6509025 22.7119261,39.6532795 C22.6653845,39.6426339 22.6280312,39.6080124 22.6138869,39.5624104 C22.5086741,39.3352379 22.5684541,39.0387179 22.4058526,38.8450234 C22.2417511,39.04251 22.1094432,39.2643762 22.0136958,39.5026282 L21.3991576,39.311325 C21.3403066,39.5523096 21.3817234,39.8068603 21.5139352,40.0167556 C21.4065915,40.0654239 21.3086522,40.132608 21.2246,40.2152326 C21.140129,40.3007112 21.1105867,40.4262705 21.1480816,40.5404481 C21.2902345,40.5761618 21.4368855,40.5906663 21.5832799,40.5834913 C21.5607145,40.854608 21.576817,41.1275562 21.6311039,41.3941386 C21.634019,41.4341161 21.6529964,41.4712098 21.6837103,41.4969641 C21.7291431,41.5256596 21.7889231,41.4969641 21.8343559,41.4730512 C22.0467286,41.3402099 22.2213131,41.1549127 22.3412902,40.9350109 L22.5804101,41.4826163 C22.5961447,41.5387787 22.6318619,41.587254 22.6808405,41.6189199 C22.7531168,41.6433526 22.832769,41.6158174 22.8745277,41.5519638 C22.9126031,41.4887137 22.9355193,41.4175073 22.9414812,41.3439215 L23.0275644,40.8226203 C23.0294295,40.7963035 23.0394606,40.7712249 23.0562588,40.7508816 C23.0818991,40.7304842 23.1145534,40.7210313 23.1471244,40.7245774 C23.3655206,40.7245774 23.5831198,40.7245774 23.7999218,40.7245774 C23.8357898,40.6097955 23.7210123,40.5021874 23.6110171,40.4519703 C23.5010219,40.4017532 23.3718971,40.3682752 23.3121172,40.2582758 C23.1973396,40.0382772 23.4914571,39.732192 23.3671147,39.5408888 C23.2427724,39.3495856 22.974958,39.5361063 22.7836621,39.6317579 Z" id="Path" opacity="0.2"></path>
                <path d="M7.3532519,7.41151593 C7.33112098,7.42365866 7.30667602,7.43099242 7.28151592,7.43303754 C7.23497431,7.42239196 7.19762098,7.38777049 7.18347674,7.34216852 C7.07826397,7.10303952 7.13804395,6.818476 6.97783359,6.62478151 C6.81205476,6.82107676 6.67957885,7.04322465 6.58567687,7.28238627 L5.96874741,7.09108307 C5.90599977,7.33608635 5.94847769,7.5961651 6.08591619,7.80847008 C5.97752298,7.85653398 5.87869621,7.92377113 5.79418985,8.00694715 C5.71005824,8.09265898 5.68138492,8.21845639 5.72006267,8.33216259 C5.86217896,8.36808597 6.00886132,8.38259356 6.15526097,8.37520581 C6.13190905,8.64620924 6.1472064,8.9191565 6.20069376,9.18585314 C6.20360878,9.22583066 6.22258622,9.26292432 6.25330015,9.28867861 C6.29873294,9.31737409 6.35851293,9.28867861 6.40394572,9.26476571 C6.61701749,9.13277856 6.79179707,8.94727434 6.91088,8.72672545 L7.14999995,9.27433087 C7.1663339,9.33087057 7.20294322,9.37940105 7.25282153,9.4106344 C7.32439522,9.43472694 7.4031894,9.40714794 7.44411748,9.34367828 C7.48219295,9.28042827 7.5051091,9.20922182 7.51107107,9.13563605 L7.59715425,8.61433482 C7.59869134,8.58794386 7.60876174,8.56276692 7.62584864,8.54259612 C7.65148892,8.52219876 7.68414321,8.51274585 7.71671422,8.51629193 C7.93511044,8.51629193 8.15270959,8.51629193 8.36951168,8.51629193 C8.40777087,8.40151001 8.2906021,8.29390195 8.18060692,8.24368486 C8.07061174,8.19346777 7.94148697,8.15998971 7.88170699,8.04999037 C7.76692941,7.82999169 8.06104695,7.52390656 7.93670457,7.33260336 C7.8123622,7.14130016 7.54454786,7.31586433 7.3532519,7.41151593 Z" id="Path" opacity="0.5"></path>
                <path d="M15.5670221,25.5661899 C15.544794,25.5801153 15.5191241,25.5875682 15.4928949,25.5877115 C15.4474621,25.5877115 15.4139853,25.542277 15.3948557,25.4992338 C15.2896429,25.2720612 15.3494229,24.9755412 15.1892126,24.7818467 C15.0242931,24.9787536 14.8919044,25.2007553 14.7970558,25.4394515 L14.1801264,25.2481483 C14.119707,25.4932498 14.1620327,25.7523964 14.2972952,25.9655353 C14.1894373,26.013287 14.0913422,26.080578 14.00796,26.1640124 C13.9229864,26.2492121 13.8933725,26.3750757 13.9314416,26.4892278 C14.0735763,26.5250459 14.2202429,26.5395519 14.3666399,26.532271 C14.343288,26.8032745 14.3585854,27.0762217 14.4120727,27.3429184 C14.4162144,27.3825423 14.4349696,27.4192017 14.4646791,27.4457438 C14.5101119,27.4744393 14.5698919,27.4457438 14.6153247,27.4194397 C14.8286596,27.2888173 15.0035737,27.1039955 15.122259,26.8837907 L15.3613789,27.4313961 C15.3792091,27.4871742 15.4154654,27.5352366 15.4642005,27.5676996 C15.5357771,27.5927129 15.6151403,27.5649348 15.6554965,27.5007435 C15.6944123,27.4377033 15.7181512,27.3664838 15.7248412,27.2927013 L15.8109244,26.7714001 C15.8112787,26.7447593 15.8215031,26.7191973 15.8396188,26.6996614 C15.8648647,26.6785124 15.8978453,26.668965 15.9304844,26.6733572 C16.1480835,26.6733572 16.3656827,26.6733572 16.5808907,26.6733572 C16.6191498,26.5585752 16.5043723,26.4509672 16.3919859,26.4007501 C16.2795995,26.350533 16.1528659,26.3146637 16.093086,26.2070556 C15.9806996,25.9870569 16.2748171,25.6809718 16.1480835,25.4896686 C16.02135,25.2983654 15.7559268,25.4729296 15.5670221,25.5661899 Z" id="Path" opacity="0.5"></path>
                <path d="M9.6057618,18.4879714 C9.58444092,18.5019464 9.5595182,18.5094235 9.53402582,18.509493 C9.48620183,18.509493 9.45511624,18.4640585 9.43598664,18.4210153 C9.33077386,18.1938427 9.39055385,17.8973227 9.22795229,17.7036282 C9.0638508,17.9011148 8.9315429,18.122981 8.83579557,18.361233 L8.22125731,18.1699298 C8.15898339,18.4146569 8.20051478,18.674238 8.33603489,18.8873168 C8.22869126,18.9359851 8.13075191,19.0031692 8.04669975,19.0857939 C7.96172609,19.1709936 7.93211225,19.2968572 7.97018137,19.4110093 C8.11233424,19.446723 8.25898522,19.4612275 8.40537967,19.4540525 C8.3828142,19.7251692 8.39891673,19.9981174 8.45320366,20.2646999 C8.45611868,20.3046774 8.47509612,20.3417711 8.50581005,20.3675253 C8.55124284,20.3962208 8.61102282,20.3675253 8.65645561,20.3412211 C8.86979051,20.2105988 9.04470459,20.025777 9.1633899,19.8055722 L9.40250985,20.3531776 C9.4182444,20.40934 9.45396167,20.4578153 9.50294023,20.4894811 C9.57521648,20.5139138 9.65486871,20.4863787 9.69662738,20.422525 C9.73470285,20.359275 9.757619,20.2880686 9.76358097,20.2144828 L9.84966415,19.6931815 C9.85120124,19.6667906 9.86127164,19.6416136 9.87835854,19.6214428 C9.90399882,19.6010455 9.93665311,19.5915926 9.96922412,19.5951387 C10.1860262,19.5951387 10.4036254,19.5951387 10.6220216,19.5951387 C10.6578896,19.4803567 10.543112,19.3727487 10.4331168,19.3225316 C10.3231216,19.2723145 10.1939969,19.2364452 10.1342169,19.1288371 C10.0194393,18.9088384 10.3135568,18.6027533 10.1892145,18.4114501 C10.0648721,18.2201469 9.79705776,18.3947111 9.6057618,18.4879714 Z" id="Path" opacity="0.5"></path>
                <path d="M35.2059433,20.1547005 C35.1844574,20.1683175 35.1596404,20.1757629 35.1342073,20.1762221 C35.0863833,20.1762221 35.0552977,20.1307876 35.033777,20.0877444 C34.9309554,19.8605719 34.9907354,19.5640519 34.8281338,19.3703574 C34.6640323,19.5678439 34.5317244,19.7897101 34.4359771,20.0279622 L33.8214388,19.836659 C33.7625878,20.0776436 33.8040047,20.3321942 33.9362164,20.5420895 C33.8277337,20.5887142 33.729437,20.6561433 33.6468813,20.7405666 C33.5619076,20.8257663 33.5322938,20.9516299 33.5703629,21.065782 C33.7127181,21.1003191 33.8591988,21.1148067 34.0055612,21.1088252 C33.9829957,21.3799419 33.9990982,21.6528901 34.0533852,21.9194726 C34.0563002,21.9594501 34.0752776,21.9965438 34.1059916,22.022298 C34.1514243,22.0509935 34.2112043,22.022298 34.2566371,21.9959939 C34.4688433,21.863984 34.6434386,21.6794989 34.7635714,21.4603449 L35.0026914,22.005559 C35.0179003,22.0626034 35.0536726,22.1120051 35.1031217,22.1442538 C35.175398,22.1686865 35.2550502,22.1411514 35.2968089,22.0772977 C35.3348844,22.0140477 35.3578005,21.9428413 35.3637625,21.8692555 L35.4498457,21.3479543 C35.4516873,21.3209094 35.461693,21.2950603 35.4785401,21.2738243 C35.5046459,21.2545047 35.5371721,21.2459449 35.5694056,21.2499114 C35.7862077,21.2499114 36.0038069,21.2499114 36.2222031,21.2499114 C36.2580711,21.1351294 36.1432935,21.0275214 36.0332983,20.9773043 C35.9233032,20.9270872 35.7941784,20.8912179 35.7343984,20.7836098 C35.6196208,20.5636111 35.9137384,20.257526 35.789396,20.0662228 C35.6650536,19.8749196 35.3972393,20.0614402 35.2059433,20.1547005 Z" id="Path" opacity="0.5"></path>
                <path d="M22.7836621,18.7629697 C22.7623412,18.7769447 22.7374185,18.7844218 22.7119261,18.7844913 C22.6641021,18.7844913 22.6330165,18.7366655 22.6138869,18.6960136 C22.5086741,18.4568846 22.5684541,18.1723211 22.4058526,17.9786266 C22.2427724,18.1768336 22.1105625,18.3985355 22.0136958,18.6362314 L21.3991576,18.4449282 C21.3374614,18.6896811 21.3789559,18.9490315 21.5139352,19.1623152 C21.4062656,19.2093506 21.3081833,19.2758221 21.2246,19.3584009 C21.1397136,19.4446317 21.1101759,19.5710944 21.1480816,19.6860077 C21.2906412,19.7193265 21.4369558,19.7337978 21.5832799,19.7290509 C21.5609421,19.9993759 21.5770436,20.2715027 21.6311039,20.5373069 C21.6328552,20.5776009 21.6520589,20.6151368 21.6837103,20.6401324 C21.7291431,20.6712192 21.7889231,20.6401324 21.8343559,20.6162195 C22.0474277,20.4842324 22.2222072,20.2987281 22.3412902,20.0781792 L22.5804101,20.6257847 C22.5961447,20.681947 22.6318619,20.7304223 22.6808405,20.7620882 C22.7525515,20.7888344 22.833206,20.7619485 22.8745277,20.6975234 C22.9126031,20.6342734 22.9355193,20.5630669 22.9414812,20.4894811 L23.0275644,19.9681799 C23.0294061,19.9411351 23.0394118,19.915286 23.0562588,19.8940499 C23.0829375,19.8757526 23.1147973,19.8665297 23.1471244,19.8677457 C23.3655206,19.8677457 23.5831198,19.8677457 23.7999218,19.8677457 C23.8357898,19.7529638 23.7210123,19.6453557 23.6110171,19.5975299 C23.5010219,19.5497041 23.3718971,19.5114435 23.3121172,19.4038355 C23.1973396,19.1838368 23.4914571,18.8777516 23.3671147,18.6864484 C23.2427724,18.4951452 22.974958,18.6697094 22.7836621,18.7629697 Z" id="Path" opacity="0.2"></path>
                <path d="M18.8860069,20.4583944 C18.864521,20.4720113 18.8397041,20.4794567 18.814271,20.479916 C18.766447,20.479916 18.7353614,20.4344815 18.7138406,20.3914382 C18.6086278,20.1523092 18.670799,19.8677457 18.5081974,19.6740512 C18.3451173,19.8722583 18.2129074,20.0939602 18.1160407,20.331656 L17.4991112,20.1427441 C17.4420739,20.3840891 17.4842854,20.6382294 17.61628,20.8481746 C17.5083947,20.8948177 17.4102437,20.9613358 17.3269449,21.0442604 C17.2420584,21.1304912 17.2125208,21.2569539 17.2504265,21.3718672 C17.3929861,21.405186 17.5393006,21.4196572 17.6856248,21.4149104 C17.6632854,21.6860297 17.679386,21.958946 17.7334488,22.2255577 C17.7363638,22.2655352 17.7553413,22.3026289 17.7860552,22.3283832 C17.831488,22.3570786 17.891268,22.3283832 17.9367008,22.302079 C18.1497725,22.1700918 18.3245521,21.9845876 18.443635,21.7640387 L18.682755,22.3116441 C18.6979639,22.3686885 18.7337362,22.4180902 18.7831854,22.450339 C18.8554616,22.4747716 18.9351138,22.4472365 18.9768725,22.3833828 C19.014948,22.3201328 19.0378641,22.2489264 19.0438261,22.1753406 L19.1299093,21.6540394 C19.1317509,21.6269946 19.1417567,21.6011455 19.1586037,21.5799094 C19.1849626,21.5609452 19.2170563,21.5516546 19.2494693,21.5536052 C19.4670684,21.5536052 19.6846676,21.5536052 19.9022667,21.5536052 C19.9381347,21.436432 19.8233571,21.3288239 19.713362,21.2809981 C19.6033668,21.2331723 19.474242,21.1949117 19.414462,21.0873036 C19.2996844,20.867305 19.593802,20.5612198 19.4694596,20.3699166 C19.3451172,20.1786134 19.0773029,20.365134 18.8860069,20.4583944 Z" id="Path" opacity="0.3"></path>
                <path d="M15.2537749,10.206934 C15.2315469,10.2208595 15.205877,10.2283123 15.1796478,10.2284556 C15.134215,10.2284556 15.1007382,10.1830211 15.0816086,10.1399779 C14.9763958,9.90084886 15.0361758,9.61628534 14.8759654,9.42259085 C14.7115935,9.61900473 14.5792467,9.84012909 14.4838087,10.0778043 L13.8668793,9.88889241 C13.8041316,10.1338957 13.8466095,10.3939744 13.984048,10.6062794 C13.8757623,10.6534863 13.7769242,10.7199209 13.6923217,10.8023652 C13.6092543,10.8896286 13.5807857,11.0154464 13.6181945,11.1299719 C13.7605339,11.1646021 13.9070277,11.179091 14.0533928,11.1730152 C14.0302668,11.4440219 14.0455624,11.7169373 14.0988256,11.9836625 C14.1017406,12.02364 14.1207181,12.0607337 14.151432,12.0864879 C14.1968648,12.1151834 14.2566448,12.0864879 14.3020776,12.0601838 C14.516019,11.9292645 14.6910465,11.7434971 14.8090118,11.5221435 L15.0481318,12.0697489 C15.065302,12.1264975 15.1016462,12.1755218 15.1509534,12.2084437 C15.228533,12.2312081 15.311053,12.1935124 15.3446405,12.119966 C15.3835564,12.0569258 15.4072953,11.9857063 15.4139853,11.9119238 L15.4976773,11.3906225 C15.499519,11.3635777 15.5095247,11.3377286 15.5263717,11.3164926 C15.5530504,11.2981952 15.5849102,11.2889723 15.6172373,11.2901884 C15.8348364,11.2901884 16.0524356,11.2901884 16.2700347,11.2901884 C16.3082939,11.1730152 16.1935163,11.0654071 16.08113,11.0175813 C15.9687436,10.9697555 15.84201,10.9314949 15.78223,10.8238868 C15.6698437,10.6038881 15.96157,10.297803 15.8372276,10.1064998 C15.7128852,9.9151966 15.4426797,10.1017172 15.2537749,10.206934 Z" id="Path" opacity="0.2"></path>
                <path d="M22.410635,23.5981582 C22.3879751,23.6110924 22.3625709,23.6184681 22.3365078,23.6196798 C22.291075,23.6196798 22.2575982,23.571854 22.2384686,23.5288108 C22.1332558,23.3016382 22.1930358,23.0075095 22.0328254,22.8114238 C21.8684015,23.0086821 21.736062,23.2306013 21.6406687,23.4690285 L21.0237393,23.2777253 C20.9615843,23.5227546 21.0040231,23.7825941 21.140908,23.9951123 C21.032144,24.0414422 20.9331528,24.1079798 20.8491817,24.1911981 C20.7665305,24.2777125 20.7380588,24.4026257 20.7750545,24.5164135 C20.9172801,24.5518481 21.0637755,24.5671422 21.2102528,24.5618481 C21.1871285,24.8320601 21.2024249,25.104186 21.2556856,25.3701041 C21.2598273,25.409728 21.2785825,25.4463874 21.308292,25.4729296 C21.3590707,25.4933841 21.4169884,25.4841905 21.4589376,25.4490167 C21.6720093,25.3170295 21.8467889,25.1315253 21.9658719,24.9109764 L22.2049918,25.4585818 C22.2213257,25.5151215 22.2579351,25.563652 22.3078134,25.5948854 C22.3788409,25.6194441 22.4574896,25.5928991 22.4991093,25.5303205 C22.5380252,25.4672803 22.5617641,25.3960608 22.5684541,25.3222783 L22.6545373,24.8009771 C22.6530339,24.7703642 22.6659326,24.7408096 22.6894004,24.7210959 C22.7128682,24.7013822 22.7442045,24.693778 22.7740973,24.7005429 C22.9916964,24.7005429 23.2069044,24.7005429 23.4245035,24.7005429 C23.4627627,24.585761 23.3479851,24.4781529 23.2355988,24.4303271 C23.1232124,24.3825013 22.9964788,24.3442407 22.9366988,24.2366326 C22.8243125,24.0166339 23.1160388,23.7105488 22.9916964,23.5192456 C22.8673541,23.3279424 22.5995397,23.4929414 22.410635,23.5981582 Z" id="Path" opacity="0.3"></path>
                <g id="Group" opacity="0.6" transform="translate(44.415693, 20.096869)">
                    <path d="M10.9719743,4.04172091 C10.8130099,3.8446028 10.5279516,3.80556902 10.3218521,3.95269796 C10.1157525,4.09982689 10.0600593,4.38211401 10.1948345,4.59650019 C10.2833089,4.73041244 10.381348,4.8595421 10.4746048,4.98388918 C11.5960774,6.49996706 12.1771388,8.33169523 12.6792907,10.1586408 C12.8012419,10.6058121 12.9184107,11.0816788 12.7797211,11.5240674 C12.952952,10.3328499 12.8714505,9.11843067 12.5406012,7.96104527 C12.2121815,6.80730924 11.7907463,5.68210661 11.280439,4.59650019 C11.197665,4.40111694 11.0942567,4.21513535 10.9719743,4.04172091 Z" id="Path" opacity="0.5"></path>
                    <path d="M3.68838073,7.22931052 C2.9303705,7.20539762 2.83472252,8.35321684 3.58795035,8.41299909 C3.78641991,8.42973812 3.98488947,8.4345207 4.17618542,8.43930328 C6.49564891,8.50147682 8.68598762,9.34321091 10.7926344,10.2471185 C11.3115246,10.4695085 11.8543269,10.7253766 12.1556181,11.2036346 C11.1771305,10.1207592 9.97210201,9.26675685 8.62620763,8.70234518 C7.27782036,8.13784623 5.88444151,7.68750065 4.46073816,7.35604889 C4.20872108,7.28556583 3.94970614,7.24306332 3.68838073,7.22931052 Z" id="Path"></path>
                    <path d="M3.89880629,10.0510328 C3.42056639,10.0677718 3.52817037,10.7492895 4.01119266,10.7516807 C4.13553503,10.7516807 4.25031261,10.7516807 4.38182858,10.7516807 C5.84524265,10.6918985 7.34213352,11.0960265 8.7959828,11.5408065 C9.16340984,11.6216307 9.50463952,11.7934855 9.78833058,12.0405861 C9.01664516,11.4447627 8.14210634,10.9957239 7.20822635,10.7158114 C6.29056336,10.4390169 5.35390963,10.2296205 4.40574057,10.0892934 C4.23834036,10.0606361 4.06861125,10.0478259 3.89880629,10.0510328 L3.89880629,10.0510328 Z" id="Path" opacity="0.2"></path>
                    <path d="M13.6835945,22.684218 C13.8198929,23.1433457 14.4511695,22.8707386 14.336392,22.4020458 C14.3053064,22.28009 14.2694384,22.1629168 14.2335704,22.0457436 C13.8151105,20.6420563 13.8342401,19.0925004 13.9035849,17.5740312 C13.8918531,17.1979018 13.974036,16.8247777 14.1427048,16.4883855 C13.7553764,17.3830121 13.5349471,18.3409436 13.4922986,19.3148904 C13.4556612,20.272519 13.4884267,21.2315437 13.5903377,22.1844384 C13.6057736,22.3535749 13.6369952,22.5208969 13.6835945,22.684218 L13.6835945,22.684218 Z" id="Path" opacity="0.5"></path>
                    <path d="M4.77159409,3.40324647 C4.48225896,3.35302938 4.46073816,3.77389642 4.7476821,3.83606996 L4.97006365,3.87911318 C5.85241625,4.02976446 6.69411846,4.46019666 7.50712628,4.90975919 C7.71580298,5.00458956 7.89746207,5.15008674 8.03558137,5.33301753 C7.65053612,4.87962739 7.18525313,4.501064 6.66303287,4.21628508 C6.14855726,3.93901096 5.61472812,3.69925826 5.06571163,3.49889807 C4.97059717,3.45863736 4.87219508,3.42663547 4.77159409,3.40324647 Z" id="Path" opacity="0.2"></path>
                    <path d="M0.32635428,14.5155713 C-0.402961558,14.8910038 0.213967905,15.9240411 0.964804538,15.5820866 C1.16088289,15.4912176 1.35217885,15.3907834 1.53391001,15.2975231 C3.76729031,14.1377474 6.35935054,13.7120978 8.90836917,13.3844911 C9.53486343,13.3031872 10.2020081,13.2338398 10.7806784,13.4801427 C9.18745622,13.0667229 7.52895984,12.9676317 5.89784904,13.1884053 C4.28545469,13.4082937 2.69225007,13.7512494 1.1321885,14.2142687 C0.854075719,14.2871807 0.584080813,14.3881321 0.32635428,14.5155713 Z" id="Path"></path>
                    <path d="M2.41387142,18.5329385 C1.88780753,19.0111965 2.70798895,19.5994539 3.25796483,19.130761 C3.4014368,19.0064139 3.54012637,18.8772843 3.66925114,18.7553285 C5.26896358,17.2535983 7.38278391,16.1846917 9.48703944,15.1994802 C10.0035385,14.9603512 12.1173589,14.7212222 12.6984203,14.7212222 C11.2158767,14.8551344 8.18622693,15.3166534 6.83998163,15.9168672 C5.5176098,16.547165 4.2393858,17.2661932 3.01406248,18.0690283 C2.79997691,18.2046187 2.59903857,18.3599315 2.41387142,18.5329385 L2.41387142,18.5329385 Z" id="Path" opacity="0.5"></path>
                    <path d="M6.15609858,24.9439871 C6.00306182,25.6446351 7.0049744,25.6613741 7.19148795,24.9439871 C7.23931194,24.7622491 7.27996233,24.5781197 7.31822153,24.4011643 C7.77972302,22.2490032 8.91076037,20.1757548 10.0824481,18.1694624 C10.369392,17.6768567 11.9786693,16.2564304 12.454518,15.9551279 C11.3091334,16.9116439 9.08053553,19.0088052 8.3225253,20.276189 C7.59722114,21.5437679 6.95812132,22.8587656 6.40956573,24.2122523 C6.30308079,24.4479799 6.2182427,24.6928991 6.15609858,24.9439871 Z" id="Path"></path>
                    <path d="M13.6931593,0.330438773 C13.3344794,-0.398904688 12.3134372,0.201309111 12.6386403,0.949782892 C12.7223323,1.14347738 12.8179803,1.33478059 12.9088459,1.51890992 C14.0087976,3.74520094 14.3889984,6.32062031 14.6711599,8.85299646 C14.7405047,9.47234058 14.8002847,10.1347279 14.5468175,10.7062462 C14.9780165,9.13293015 15.1014288,7.49115946 14.9102798,5.87105778 C14.7190292,4.27001065 14.4072889,2.68567063 13.977712,1.13152093 C13.9097844,0.855680332 13.8144598,0.587319336 13.6931593,0.330438773 L13.6931593,0.330438773 Z" id="Path"></path>
                    <path d="M7.99253978,1.5715183 C8.01038931,1.58284993 8.03118141,1.58867194 8.05231976,1.58825733 C8.09212322,1.58164038 8.12463646,1.55284184 8.13601174,1.51412734 C8.22687732,1.31804156 8.17427094,1.0669561 8.3129605,0.904348381 C8.4521636,1.07245786 8.56430288,1.26124623 8.64533723,1.46391025 L9.17140111,1.30130253 C9.22062102,1.50671799 9.18437914,1.7233146 9.07097074,1.90151633 C9.16012233,1.94243052 9.2411343,1.99914104 9.31009068,2.06890663 C9.38070205,2.14265734 9.40463986,2.24946087 9.37226187,2.34629627 C9.25125186,2.3771044 9.12637738,2.38999516 9.00162595,2.38455691 C9.02222079,2.61476345 9.00933369,2.84673992 8.96336676,3.07324844 C8.96014244,3.10748022 8.94387498,3.13916016 8.91793397,3.16172617 C8.87497035,3.17864 8.82617257,3.17035327 8.7912004,3.14020456 C8.60946429,3.02844077 8.46022774,2.87095315 8.35839329,2.68346817 L8.16470614,3.14737843 C8.15023844,3.19579207 8.11883402,3.23738328 8.07623176,3.26455165 C8.0158343,3.2859919 7.94861273,3.26325433 7.91363019,3.20955197 C7.88175974,3.15548745 7.8621675,3.09507575 7.85624141,3.03259651 L7.78211422,2.58781657 C7.78144835,2.56497516 7.77301349,2.54304369 7.75820223,2.52564302 C7.7363776,2.50896574 7.70900184,2.50126601 7.68168384,2.50412141 C7.49517029,2.50412141 7.31104793,2.50412141 7.12692557,2.50412141 C7.09344878,2.40607852 7.19148795,2.3152095 7.28713593,2.26499241 C7.38278391,2.21477532 7.49277909,2.19086242 7.54060308,2.0999934 C7.63864225,1.91108149 7.38756631,1.65043087 7.49517029,1.49021444 C7.60277426,1.32999801 7.83711181,1.49021444 7.99253978,1.5715183 Z" id="Path"></path>
                    <path d="M18.1216607,4.04172091 C18.274853,3.82645122 18.5735438,3.77613223 18.7888054,3.9293303 C19.0040669,4.08252836 19.054384,4.38123049 18.9011918,4.59650019 C18.8103262,4.73041244 18.7146782,4.8595421 18.6214214,4.98388918 C17.4999489,6.49996706 16.9164962,8.33169523 16.4167355,10.1586408 C16.2923931,10.6058121 16.1776156,11.0816788 16.3139139,11.5240674 C16.140756,10.332847 16.2222565,9.11844321 16.5530339,7.96104527 C16.880383,6.80695728 17.3018504,5.68166865 17.813196,4.59650019 C17.8958876,4.40107671 17.9993007,4.21508655 18.1216607,4.04172091 Z" id="Path" opacity="0.5"></path>
                    <path d="M25.4052543,7.22931052 C26.1608733,7.20539762 26.2589125,8.35321684 25.5032935,8.41299909 C25.3072151,8.42973812 25.1063544,8.4345207 24.9174496,8.43930328 C22.5979861,8.50147682 20.4052562,9.34321091 18.2986095,10.2471185 C17.7821104,10.4695085 17.2393081,10.7253766 16.938017,11.2036346 C17.9165046,10.1207592 19.121533,9.26675685 20.4674274,8.70234518 C21.815123,8.13819406 23.2076781,7.68785619 24.6305057,7.35604889 C24.8833775,7.28575074 25.1431642,7.24325316 25.4052543,7.22931052 Z" id="Path"></path>
                    <path d="M25.2091759,10.0510328 C25.6874158,10.0677718 25.5774207,10.7492895 25.0967896,10.7516807 C24.970056,10.7516807 24.8457136,10.7516807 24.7261537,10.7516807 C23.2627396,10.6918985 21.7658487,11.0960265 20.3119994,11.5408065 C19.9443989,11.6211421 19.6030534,11.7930551 19.3196517,12.0405861 C20.0910441,11.4443017 20.965672,10.9952172 21.8997559,10.7158114 C22.8192279,10.442023 23.7574845,10.2358225 24.7070241,10.0988586 C24.8725506,10.067293 25.0406669,10.0512813 25.2091759,10.0510328 L25.2091759,10.0510328 Z" id="Path" opacity="0.5"></path>
                    <path d="M24.3244321,3.40324647 C24.6137673,3.35302938 24.6352881,3.77389642 24.3483441,3.83606996 L24.1235714,3.87911318 C23.24361,4.02976446 22.3995166,4.46019666 21.5889,4.90975919 C21.3802233,5.00458956 21.1985642,5.15008674 21.0604449,5.33301753 C21.4446277,4.8797007 21.9091147,4.50112535 22.4306022,4.21628508 C22.9461124,3.93943808 23.4807053,3.69970122 24.0303146,3.49889807 C24.1253128,3.45832689 24.2237425,3.42631602 24.3244321,3.40324647 Z" id="Path" opacity="0.2"></path>
                    <path d="M16.8399778,23.5546476 C16.7754154,23.8392111 16.3808675,23.698125 16.4334739,23.4087789 C16.4334739,23.3322576 16.4645595,23.2581276 16.4812979,23.1863889 C16.6821586,22.3159594 16.6080315,21.3713998 16.5076011,20.4483618 C16.4995498,20.2192393 16.4346325,19.9957181 16.3186963,19.7979309 C16.5890725,20.3273189 16.7593139,20.9021081 16.8208482,21.4933556 C16.8809227,22.0763704 16.8993019,22.6629301 16.8758458,23.2485625 C16.8745374,23.3515587 16.8625167,23.4541394 16.8399778,23.5546476 Z" id="Path" opacity="0.2"></path>
                    <path d="M24.1403098,21.6607459 C24.3650825,22.040961 23.8127155,22.0146568 23.5712043,21.6344417 C23.5066419,21.5340075 23.4492531,21.4335733 23.3918644,21.3379217 C22.7079813,20.1733635 21.6654183,19.0207617 20.6156818,17.9088118 C20.3679505,17.6197604 20.0786443,17.3691264 19.7572412,17.1651206 C20.5763384,17.7241718 21.3323924,18.37041 22.0121423,19.0925004 C22.6864605,19.8098874 23.279478,20.5272744 23.8629306,21.2637917 C23.9642267,21.3897099 24.0568976,21.5223301 24.1403098,21.6607459 L24.1403098,21.6607459 Z" id="Path" opacity="0.5"></path>
                    <path d="M4.14031743,21.6607459 C3.91554468,22.040961 4.46791176,22.0146568 4.7118141,21.6344417 C4.77398529,21.5340075 4.83376528,21.4335733 4.88876287,21.3379217 C5.57264591,20.1733635 6.61520888,19.0207617 7.66494545,17.9088118 C7.91353067,17.6197031 8.20363302,17.3690774 8.52577726,17.1651206 C7.70592515,17.7241375 6.94907477,18.3703711 6.26848496,19.0925004 C5.59655791,19.8098874 5.00114924,20.5272744 4.41769657,21.2637917 C4.31640048,21.3897099 4.22372962,21.5223301 4.14031743,21.6607459 L4.14031743,21.6607459 Z" id="Path" opacity="0.2"></path>
                    <path d="M11.4549966,23.5546476 C11.519559,23.8392111 11.9141069,23.698125 11.8638917,23.4087789 C11.8495445,23.3322576 11.8328061,23.2581276 11.8160677,23.1863889 C11.615207,22.3159594 11.686943,21.3713998 11.7897645,20.4483618 C11.7958655,20.2192564 11.8600422,19.9954523 11.9762781,19.7979309 C11.7059019,20.3273189 11.5356605,20.9021081 11.4741262,21.4933556 C11.4136463,22.0763477 11.3960635,22.6629945 11.4215198,23.2485625 C11.4232515,23.3514027 11.4344579,23.4538644 11.4549966,23.5546476 L11.4549966,23.5546476 Z" id="Path" opacity="0.2"></path>
                    <path d="M22.0217071,6.26562064 C22.308651,6.21540355 22.3301718,6.6338793 22.0432279,6.69844414 C21.9691007,6.71518317 21.8925823,6.72713962 21.8208463,6.73909607 C20.9384937,6.88974734 20.0967915,7.32017954 19.2837837,7.77213336 C19.0755287,7.86764895 18.8940244,8.01302219 18.7553286,8.1953917 C19.1402758,7.74126097 19.6055488,7.36189503 20.1278771,7.07626796 C20.6423306,6.79894896 21.176163,6.55919477 21.7251983,6.35888095 C21.8206924,6.31802427 21.9200191,6.28678322 22.0217071,6.26562064 L22.0217071,6.26562064 Z" id="Path" opacity="0.2"></path>
                    <path d="M19.3316077,0.648480348 C19.5707276,0.493046495 19.7572412,0.873261611 19.51573,1.04065191 L19.3244341,1.16260771 C18.5640326,1.64086571 17.9423208,2.34629627 17.3564769,3.07563973 C17.197903,3.24208552 17.0843376,3.44618169 17.0264914,3.66867966 C17.2135116,3.10340828 17.5028756,2.57734565 17.8801496,2.11673243 C18.2523744,1.6648989 18.6567417,1.24053687 19.0900965,0.84695742 C19.1636035,0.772715547 19.2445306,0.70620857 19.3316077,0.648480348 Z" id="Path" opacity="0.2"></path>
                    <path d="M28.769672,14.5155713 C29.4989878,14.8910038 28.8820583,15.9240411 28.1312217,15.5820866 C27.9351433,15.4912176 27.7438474,15.3907834 27.559725,15.2975231 C25.3287359,14.1377474 22.7366757,13.7120978 20.1876571,13.3844911 C19.5611628,13.3031872 18.8940182,13.2338398 18.3153479,13.4801427 C19.9078053,13.0670349 21.5654588,12.9679456 23.195786,13.1884053 C24.8090093,13.4080444 26.4030276,13.7510032 27.9638377,14.2142687 C28.2416982,14.2879742 28.5116152,14.3888965 28.769672,14.5155713 Z" id="Path"></path>
                    <path d="M26.6821548,18.5329385 C27.2082187,19.0111965 26.3880373,19.5994539 25.8380614,19.130761 C25.6945894,19.0064139 25.5558999,18.8772843 25.4243839,18.7553285 C23.8246715,17.2535983 21.7132423,16.1846917 19.6065956,15.1994802 C19.0924877,14.9603512 16.9643202,14.7212222 16.3976059,14.7212222 C17.8801496,14.8551344 20.9074081,15.3166534 22.2536534,15.9168672 C23.5762484,16.5467348 24.854501,17.2657792 26.0795726,18.0690283 C26.2944875,18.2044954 26.4962308,18.3598116 26.6821548,18.5329385 L26.6821548,18.5329385 Z" id="Path" opacity="0.5"></path>
                    <path d="M20.498513,25.7402867 C20.5630754,26.4576737 19.5659452,26.3405005 19.4702972,25.6231135 C19.4463852,25.4342016 19.4296468,25.2476809 19.4129084,25.0683342 C19.2240037,22.8826951 18.3607807,20.6755344 17.4497337,18.5377211 C17.2273521,18.0140286 15.8069796,16.4118643 15.3765637,16.0436056 C16.3928235,17.1316426 18.3392599,19.4966284 18.9346685,20.8500986 C19.4989405,22.1981528 19.971872,23.5826483 20.3502586,24.9942042 C20.4230233,25.2376838 20.4726612,25.4874843 20.498513,25.7402867 Z" id="Path"></path>
                    <path d="M21.0963129,1.5715183 C21.0776105,1.58291551 21.0560379,1.58872374 21.0341417,1.58825733 C20.9950614,1.58016084 20.9632063,1.55194524 20.9504497,1.51412734 C20.8619753,1.31804156 20.9121905,1.0669561 20.7758921,0.904348381 C20.6359398,1.07236402 20.5229979,1.26114538 20.4411242,1.46391025 L19.9174515,1.30130253 C19.8668058,1.50666614 19.9031422,1.72382783 20.0178819,1.90151633 C19.9287303,1.94243052 19.8477183,1.99914104 19.778762,2.06890663 C19.7073099,2.14215573 19.6824368,2.24902212 19.7141996,2.34629627 C19.8352572,2.37683611 19.9600923,2.3897228 20.0848355,2.38455691 C20.0660738,2.61489179 20.0797576,2.8467204 20.1254859,3.07324844 C20.1287102,3.10748022 20.1449777,3.13916016 20.1709187,3.16172617 C20.2138823,3.17864 20.2626801,3.17035327 20.2976522,3.14020456 C20.4793883,3.02844077 20.6286249,2.87095315 20.7304593,2.68346817 L20.9241465,3.14737843 C20.9385582,3.19515113 20.9689501,3.23651935 21.0102297,3.26455165 C21.0713308,3.28633008 21.1394081,3.26363681 21.1752224,3.20955197 C21.2070929,3.15548745 21.2266851,3.09507575 21.2326112,3.03259651 L21.3067384,2.58781657 C21.3074043,2.56497516 21.3158391,2.54304369 21.3306504,2.52564302 C21.352475,2.50896574 21.3798508,2.50126601 21.4071688,2.50412141 C21.5912912,2.50412141 21.7778047,2.50412141 21.9619271,2.50412141 C21.9954039,2.40607852 21.8949735,2.3152095 21.8017167,2.26499241 C21.7084599,2.21477532 21.5936824,2.19086242 21.5458584,2.0999934 C21.4502104,1.91108149 21.7012863,1.65043087 21.5936824,1.49021444 C21.4860784,1.32999801 21.2589144,1.49021444 21.0963129,1.5715183 Z" id="Path"></path>
                    <path d="M22.6792869,23.1720412 C22.6602673,23.1830166 22.6390152,23.189556 22.6171157,23.1911715 C22.5764653,23.1911715 22.5501621,23.1505196 22.5334237,23.1146502 C22.4449494,22.9209557 22.4951646,22.667479 22.3588662,22.5048713 C22.2180955,22.6723051 22.1050725,22.8612222 22.0240983,23.0644331 L21.5004256,22.9018254 C21.4502193,23.1069083 21.4856126,23.3235924 21.5984648,23.5020392 C21.5089345,23.5433401 21.427853,23.6009102 21.3593448,23.6718208 C21.287397,23.7447976 21.2624546,23.8519616 21.2947824,23.9492104 C21.4161489,23.9778028 21.5408215,23.9898683 21.6654183,23.9850798 C21.6458065,24.2153019 21.6586858,24.4471385 21.7036775,24.6737713 C21.7069019,24.7080031 21.7231693,24.739683 21.7491103,24.7622491 C21.7873695,24.786162 21.8375847,24.7622491 21.8782351,24.7407274 C22.0592356,24.6288129 22.2076611,24.471311 22.308651,24.2839911 L22.5047293,24.7479013 C22.5175701,24.796442 22.5483305,24.8383119 22.5908125,24.8650745 C22.65121,24.8865148 22.7184316,24.8637772 22.7534141,24.8100749 C22.7863428,24.756312 22.8067725,24.6958377 22.8131941,24.6331194 L22.8849301,24.1883394 C22.887824,24.1660033 22.8960232,24.1446846 22.9088421,24.1261659 C22.9314012,24.1091154 22.95966,24.1014081 22.9877516,24.1046443 C23.171874,24.1046443 23.3583876,24.1046443 23.5425099,24.1046443 C23.5735955,24.0066014 23.4755563,23.9157324 23.3822996,23.8655153 C23.2890428,23.8152982 23.1742652,23.7913853 23.1264412,23.7005163 C23.0307932,23.5116044 23.279478,23.253345 23.1742652,23.0907373 C23.0690524,22.9281296 22.8418885,23.0907373 22.6792869,23.1720412 Z" id="Path" opacity="0.2"></path>
                    <path d="M27.1221355,8.69278002 C27.102993,8.70347064 27.0818053,8.70999016 27.0599643,8.71191034 C27.0193139,8.71191034 26.9930108,8.67125841 26.9762724,8.63538906 C26.8854068,8.44169457 26.9380132,8.18821783 26.7993236,8.0256101 C26.6601205,8.19371958 26.5479812,8.38250796 26.4669469,8.58517197 L25.940883,8.42256425 C25.8916631,8.62797971 25.927905,8.84457632 26.0413134,9.02277805 C25.9514661,9.06352939 25.8702873,9.12116852 25.8021934,9.19255964 C25.7302456,9.26553648 25.7053032,9.37270046 25.737631,9.46994929 C25.8589783,9.49865801 25.9836668,9.51072509 26.1082669,9.50581864 C26.0886551,9.73604071 26.1015345,9.96787731 26.1465261,10.1945102 C26.1497505,10.2287419 26.1660179,10.2604219 26.1919589,10.2829879 C26.2349225,10.2999017 26.2837203,10.291615 26.3186925,10.2614663 C26.5004286,10.1497025 26.6496652,9.99221487 26.7514996,9.80472989 L26.947578,10.2686402 C26.9604188,10.3171809 26.9911791,10.3590507 27.0336611,10.3858134 C27.0940586,10.4072536 27.1612802,10.3845161 27.1962627,10.3308137 C27.2294808,10.2773656 27.2491783,10.2166293 27.2536515,10.1538582 L27.3277787,9.70907829 C27.3284445,9.68623688 27.3368794,9.66430542 27.3516907,9.64690475 C27.3735153,9.63022746 27.4008911,9.62252774 27.4282091,9.62538314 C27.6147226,9.62538314 27.798845,9.62538314 27.9853585,9.62538314 C28.0164441,9.52734025 27.9184049,9.43647123 27.822757,9.38625413 C27.727109,9.33603704 27.6171138,9.31212414 27.5692898,9.22125512 C27.4712506,9.03234321 27.7223266,8.7716926 27.6171138,8.61147616 C27.511901,8.45125973 27.2847371,8.61147616 27.1221355,8.69278002 Z" id="Path"></path>
                    <path d="M9.35313227,25.33855 C9.32709758,25.3543982 9.29749519,25.3634437 9.26704909,25.3648541 C9.2120515,25.3648541 9.17379231,25.3074632 9.14988032,25.2572461 C9.02553795,24.9870303 9.09727393,24.637902 8.91076037,24.4083381 C8.71655744,24.6425035 8.56004722,24.9055152 8.44686767,25.1878987 L7.71516064,24.9631174 C7.64596525,25.2493653 7.69602202,25.5514435 7.85385021,25.8000689 C7.7248045,25.8569662 7.6079042,25.93815 7.50951748,26.0391979 C7.40960201,26.1404307 7.37454468,26.2889687 7.4186519,26.4241956 C7.58736707,26.4666252 7.76134633,26.484346 7.93515099,26.476804 C7.90931912,26.7966538 7.92782684,27.1185393 7.99014858,27.43332 C7.99418536,27.4817325 8.01743614,27.5265135 8.05471096,27.5576671 C8.10731735,27.5911452 8.17666213,27.5576671 8.23165972,27.5265803 C8.48380513,27.3698144 8.69133037,27.1507517 8.83424199,26.8904972 L9.10444753,27.5385368 C9.12369435,27.6059047 9.16711707,27.6638038 9.2263987,27.7011445 C9.31466197,27.7373106 9.41611592,27.7038295 9.46551865,27.6222319 C9.5108814,27.5499466 9.53872213,27.468059 9.54681943,27.3831029 L9.64724981,26.7661501 C9.64651425,26.7298253 9.66233471,26.6951367 9.69024485,26.6718774 C9.71815498,26.6486181 9.75512647,26.6393117 9.79072178,26.6465856 C10.0489713,26.6465856 10.3048297,26.6465856 10.5630792,26.6465856 C10.608512,26.5102821 10.4698224,26.3811524 10.3383065,26.3237615 C10.2067905,26.2663705 10.0513625,26.2233273 9.98440893,26.0846324 C9.85050176,25.8239818 10.1972257,25.4605057 10.0489713,25.2357245 C9.86006656,24.9655087 9.58029622,25.2261593 9.35313227,25.33855 Z" id="Path"></path>
                    <path d="M1.95954352,9.12560352 C1.93332575,9.14070898 1.90371246,9.14893521 1.87346034,9.14951642 C1.81846275,9.14951642 1.78020356,9.09451675 1.75629156,9.04429966 C1.63194919,8.77408389 1.70368517,8.42256425 1.51717162,8.1953917 C1.32296869,8.42955703 1.16645846,8.69256872 1.05327892,8.97495225 L0.321571881,8.7477797 C0.252376489,9.03402759 0.302433265,9.33610578 0.46026145,9.58473121 C0.332296669,9.64353853 0.215727553,9.72449237 0.115928727,9.82386021 C0.0159409235,9.92607883 -0.0182431944,10.0757555 0.0274543462,10.2112492 C0.195541577,10.2526193 0.368580056,10.2703262 0.541562232,10.2638576 C0.515791651,10.583708 0.534298883,10.9055851 0.59655982,11.2203736 C0.600690973,11.2680877 0.623985223,11.3120896 0.661122205,11.3423294 C0.713728594,11.3781987 0.783073378,11.3423294 0.838070966,11.3136339 C1.0908677,11.1566294 1.29851703,10.9366116 1.44065323,10.6751595 L1.71085877,11.3255904 C1.73214077,11.3919272 1.77508797,11.4491923 1.83280994,11.4881981 C1.91766064,11.5159871 2.01062206,11.483694 2.05997389,11.4092855 C2.10502108,11.3368504 2.13283593,11.2550389 2.14127468,11.1701565 L2.24170505,10.5508124 C2.24456796,10.5191219 2.25708765,10.4890735 2.27757305,10.4647259 C2.30761511,10.4399593 2.34655626,10.4287092 2.38517702,10.4336392 C2.64342656,10.4336392 2.89928491,10.4336392 3.15753445,10.4336392 C3.20296724,10.2949443 3.06666887,10.168206 2.9327617,10.110815 C2.79885453,10.0534241 2.64581776,10.0079895 2.57886418,9.87168601 C2.44495701,9.6110354 2.79168093,9.24755931 2.64581776,9.02277805 C2.4664778,8.76212744 2.18670747,9.01321289 1.95954352,9.12560352 Z" id="Path"></path>
                    <path d="M24.3937769,19.1642391 C24.3804727,19.1735887 24.3646049,19.1785998 24.3483441,19.1785868 C24.3193488,19.1725464 24.2957052,19.1516302 24.286173,19.1235872 C24.2216106,18.9777185 24.2598698,18.7935891 24.1570482,18.6716333 C24.0568083,18.7965954 23.9761777,18.9360916 23.9179282,19.0853265 L23.5281627,18.965762 C23.4919976,19.1179562 23.5187212,19.2783042 23.6022899,19.410542 C23.5342252,19.4398181 23.4725027,19.4820509 23.4205587,19.534889 C23.3669714,19.5888572 23.3484591,19.6684635 23.3727348,19.74054 C23.4618682,19.762339 23.5536746,19.7711978 23.6453315,19.7668442 C23.6306266,19.9380254 23.6410998,20.1104379 23.6764171,20.2785802 C23.67864,20.3036703 23.6906695,20.3268709 23.7098939,20.3431451 C23.7416586,20.3554968 23.7776641,20.3490341 23.8031507,20.326406 C23.9382109,20.2436764 24.0488068,20.1264734 24.1235714,19.9868429 L24.2670434,20.3335799 C24.2778154,20.3689528 24.3006652,20.3994203 24.3316057,20.4196664 C24.3773163,20.4349451 24.427563,20.4172103 24.4535569,20.3766231 C24.4760201,20.3344915 24.4890735,20.287987 24.4918161,20.2403196 L24.5444225,19.9103216 C24.5447968,19.8913282 24.5535164,19.8734635 24.5682598,19.8614841 C24.5830031,19.8495047 24.6022738,19.8446264 24.6209409,19.848148 C24.7572392,19.848148 24.8935376,19.848148 25.029836,19.848148 C25.053748,19.7764093 24.982012,19.7094532 24.9126672,19.6783664 C24.8433224,19.6472797 24.7572392,19.6233668 24.7237625,19.5564107 C24.6520265,19.4177158 24.8361488,19.2240213 24.7572392,19.1044568 C24.6783297,18.9848923 24.5157281,19.1068481 24.3937769,19.1642391 Z" id="Path" opacity="0.2"></path>
                    <path d="M14.3507392,24.9631174 C14.3369649,24.9714751 14.3213822,24.9763962 14.3053064,24.9774652 C14.2757269,24.9709906 14.2519514,24.9490431 14.2431352,24.9200742 C14.1785728,24.7765968 14.216832,24.5924675 14.1140104,24.4705117 C14.0132983,24.59515 13.9326238,24.7347223 13.8748905,24.8842048 L13.485125,24.7646403 C13.4492348,24.9168438 13.4759406,25.0770845 13.5592521,25.2094203 C13.4911875,25.2386964 13.4294649,25.2809293 13.377521,25.3337674 C13.3239337,25.3877355 13.3054213,25.4673418 13.329697,25.5394183 C13.4188305,25.5612173 13.5106369,25.5700762 13.6022937,25.5657225 C13.5875114,25.7361085 13.5979864,25.9077437 13.6333793,26.0750673 C13.6350966,26.1004645 13.6461728,26.124322 13.6644649,26.1420234 C13.6931593,26.1587624 13.7314185,26.1420234 13.7601129,26.1252844 C13.8951732,26.0425547 14.005769,25.9253517 14.0805336,25.7857212 L14.2240056,26.1324582 C14.2347777,26.1678312 14.2576275,26.1982987 14.288568,26.2185447 C14.3342675,26.2329509 14.3839862,26.2154024 14.4105191,26.1755015 C14.433925,26.1362046 14.4478438,26.0919904 14.4511695,26.0463718 L14.5061671,25.7163738 C14.5065414,25.6973804 14.5152611,25.6795157 14.5300044,25.6675363 C14.5447478,25.6555569 14.5640184,25.6506786 14.5826855,25.6542002 C14.7189839,25.6542002 14.8552823,25.6542002 14.9915806,25.6542002 C15.0154926,25.5824615 14.9437566,25.5131141 14.8744118,25.4844186 C14.8050671,25.4557232 14.7189839,25.429419 14.6855071,25.3624629 C14.6137711,25.223768 14.7978935,25.0300735 14.7189839,24.910509 C14.6400743,24.7909445 14.4702991,24.9057265 14.3507392,24.9631174 Z" id="Path" opacity="0.2"></path>
                    <path d="M4.64486052,4.6682389 C4.63091565,4.67621361 4.61542331,4.68110611 4.59942773,4.68258664 C4.56834214,4.68258664 4.54921254,4.65149987 4.53725654,4.62519568 C4.47030296,4.48171827 4.50856215,4.29519765 4.40574057,4.17563315 C4.30450017,4.29990784 4.22377511,4.43956748 4.16662063,4.58932632 L3.76011672,4.45780537 C3.72183264,4.60962154 3.74778057,4.77050477 3.8318527,4.90258532 C3.76460234,4.93332164 3.70313142,4.97538229 3.65012154,5.0269324 C3.59703566,5.08117671 3.57859367,5.16048028 3.60229755,5.23258334 C3.69230364,5.25417595 3.78476077,5.26382402 3.87728549,5.26127882 C3.86288751,5.43156557 3.87254721,5.60303164 3.90597988,5.7706236 C3.90766448,5.79586728 3.91979656,5.81926574 3.93945668,5.83518843 C3.96815107,5.85431875 4.00401906,5.83518843 4.03271346,5.82084069 C4.16727046,5.73749275 4.27772319,5.6204414 4.35313418,5.48127751 L4.49660615,5.82562327 C4.50658672,5.86139199 4.52962643,5.89211276 4.56116854,5.91170971 C4.60630246,5.92935796 4.65760112,5.91225776 4.68311971,5.87105778 C4.70701831,5.830941 4.72171875,5.78602129 4.7261613,5.73953683 L4.77876769,5.4119301 C4.78011373,5.39440932 4.78678916,5.3777201 4.79789729,5.3641043 C4.81433003,5.35182144 4.83500665,5.34665209 4.85528607,5.34975656 C4.99158444,5.34975656 5.12788281,5.34975656 5.26657238,5.34975656 C5.28809318,5.27562656 5.21635719,5.20867044 5.14701241,5.17758367 C5.07766762,5.1464969 4.99397564,5.12497529 4.95810765,5.05562788 C4.88637167,4.91693306 5.07049403,4.72562986 4.99397564,4.60606535 C4.91745726,4.48650085 4.7524645,4.60845665 4.64486052,4.6682389 Z" id="Path" opacity="0.5"></path>
                    <path d="M9.80506897,16.1057791 C9.79027396,16.1103789 9.77443119,16.1103789 9.75963618,16.1057791 C9.73094179,16.1057791 9.70942099,16.0770837 9.697465,16.0507795 C9.63051141,15.9073021 9.6687706,15.7207814 9.56834023,15.5988256 C9.46684526,15.723805 9.38610792,15.8642933 9.32922028,16.0149101 L8.94184596,15.8929543 C8.90455429,16.0451081 8.93135193,16.2059 9.01597315,16.3377343 C8.94750214,16.3675574 8.88509222,16.4097059 8.83185079,16.4620813 C8.77925204,16.5165917 8.76087743,16.5956055 8.7840268,16.6677323 C8.87405148,16.6892162 8.96649426,16.6988628 9.05901474,16.6964278 C9.04461676,16.8667145 9.05427646,17.0381806 9.08770913,17.2057725 C9.08993204,17.2308626 9.10196151,17.2540632 9.12118592,17.2703374 C9.14988032,17.2894677 9.18813951,17.2703374 9.2168339,17.2559896 C9.35065482,17.1724911 9.4602965,17.0554256 9.53486343,16.9164265 L9.6807266,17.2607722 C9.69070717,17.2965409 9.71374688,17.3272617 9.74528899,17.3468587 C9.78974763,17.3613912 9.83846185,17.3448278 9.86484896,17.3062067 C9.8897995,17.2665762 9.90458385,17.2214001 9.90789055,17.1746858 L9.96288814,16.847079 C9.96339207,16.8297905 9.9692396,16.8130826 9.97962653,16.7992532 C9.99647643,16.7876851 10.0165887,16.7818188 10.0370153,16.7825142 C10.1733137,16.7825142 10.3120033,16.7825142 10.4483016,16.7825142 C10.4722136,16.7083842 10.3980864,16.6414281 10.3287417,16.6103413 C10.2593969,16.5792546 10.1757049,16.5577329 10.1398369,16.4883855 C10.0704921,16.3496907 10.2546145,16.1559962 10.1757049,16.0364317 C10.0967953,15.9168672 9.92462895,16.0459969 9.80506897,16.1057791 Z" id="Path" opacity="0.5"></path>
                    <path d="M6.05088581,11.6460232 C6.03711159,11.6543809 6.02152886,11.659302 6.00545302,11.660371 C5.97587358,11.6538964 5.95209805,11.6319489 5.94328183,11.60298 C5.87632825,11.4595026 5.91458744,11.272982 5.81415706,11.1534175 C5.71271158,11.2775506 5.63196655,11.4172448 5.57503711,11.5671106 L5.1876628,11.4475461 C5.15065681,11.5997106 5.17743557,11.7603892 5.26178998,11.8923261 C5.19331897,11.9221492 5.13090905,11.9642977 5.07766762,12.0166732 C5.02506888,12.0711835 5.00669427,12.1501973 5.02984363,12.2223241 C5.11975058,12.2443529 5.21237905,12.2532133 5.30483157,12.2486283 C5.2904336,12.4189151 5.30009329,12.5903811 5.33352597,12.7579731 C5.3351256,12.7839131 5.34721131,12.8080854 5.36700276,12.8249292 C5.39569715,12.8416682 5.43395634,12.8249292 5.46265074,12.8081902 C5.59697905,12.7253105 5.70676408,12.608092 5.78068027,12.468627 L5.92654343,12.815364 C5.93731552,12.850737 5.9601653,12.8812045 5.99110582,12.9014505 C6.03611625,12.9163941 6.08550814,12.8986123 6.11066579,12.8584073 C6.13486483,12.8184277 6.14958829,12.7734377 6.15370738,12.7268863 L6.20870497,12.3992796 C6.20921968,12.3827221 6.2150933,12.3667788 6.22544337,12.3538451 C6.24175308,12.3411794 6.26227102,12.3351948 6.28283216,12.337106 C6.41913053,12.337106 6.55782009,12.337106 6.69411846,12.337106 C6.71803046,12.2653673 6.64390328,12.1960199 6.57455849,12.1673244 C6.50521371,12.138629 6.42152172,12.1123248 6.38565373,12.0453687 C6.31391775,11.9066738 6.50043131,11.7129793 6.42152172,11.5934148 C6.34261214,11.4738503 6.17044578,11.586241 6.05088581,11.6460232 Z" id="Path" opacity="0.5"></path>
                    <path d="M22.177135,12.6957995 C22.1631902,12.7037743 22.1476978,12.7086668 22.1317022,12.7101473 C22.1016075,12.7046835 22.0773809,12.6823196 22.069531,12.6527563 C22.0025775,12.5092789 22.0408367,12.3251496 21.9380151,12.2031938 C21.837303,12.3278322 21.7566284,12.4674044 21.6988951,12.616887 L21.3115208,12.4973225 C21.2738096,12.6491631 21.2997208,12.8098185 21.3832568,12.9421024 C21.3155299,12.971989 21.2539161,13.0141474 21.2015256,13.0664495 C21.1479383,13.1204177 21.129426,13.2000239 21.1537016,13.2721004 C21.2436086,13.2941292 21.3362371,13.3029896 21.4286896,13.2984046 C21.4142916,13.4686914 21.4239513,13.6401574 21.457384,13.8077494 C21.4589836,13.8336894 21.4710693,13.8578618 21.4908608,13.8747055 C21.5195552,13.8914446 21.5554232,13.8747055 21.5841176,13.8579665 C21.7191778,13.7752369 21.8297737,13.6580338 21.9045383,13.5184033 L22.0480103,13.8651404 C22.0587823,13.9005133 22.0816321,13.9309808 22.1125726,13.9512268 C22.1582832,13.9665056 22.2085299,13.9487707 22.2345238,13.9081836 C22.2587229,13.8682041 22.2734463,13.823214 22.2775654,13.7766626 L22.3301718,13.4490559 C22.3305461,13.4300625 22.3392657,13.4121978 22.3540091,13.4002184 C22.3687524,13.388239 22.3880231,13.3833607 22.4066902,13.3868824 C22.5429885,13.3868824 22.6792869,13.3868824 22.8179765,13.3868824 C22.8394973,13.3151437 22.7677613,13.2457963 22.6984165,13.2171008 C22.6290717,13.1884053 22.5453797,13.1621011 22.5095117,13.095145 C22.4377758,12.9564502 22.6218981,12.7627557 22.5453797,12.6431912 C22.4688614,12.5236267 22.296695,12.6360173 22.177135,12.6957995 Z" id="Path" opacity="0.5"></path>
                    <path d="M14.3507392,11.8181961 C14.3374349,11.8275458 14.3215672,11.8325568 14.3053064,11.8325438 C14.276311,11.8265035 14.2526674,11.8055872 14.2431352,11.7775442 C14.1785728,11.6340668 14.216832,11.4475461 14.1140104,11.3255904 C14.0137705,11.4505524 13.9331399,11.5900486 13.8748905,11.7392835 L13.485125,11.619719 C13.4489598,11.7719132 13.4756834,11.9322612 13.5592521,12.064499 C13.4911875,12.0937751 13.4294649,12.1360079 13.377521,12.1888461 C13.3239337,12.2428142 13.3054213,12.3224205 13.329697,12.394497 C13.4188305,12.416296 13.5106369,12.4251548 13.6022937,12.4208012 C13.5875195,12.5919815 13.5979934,12.7644041 13.6333793,12.9325373 C13.6356645,12.9570902 13.6466968,12.9800042 13.6644649,12.9971021 C13.6970198,13.0093247 13.7336433,13.0029154 13.7601129,12.9803631 C13.8951732,12.8976334 14.005769,12.7804304 14.0805336,12.6407999 L14.2240056,12.9875369 C14.2347777,13.0229098 14.2576275,13.0533774 14.288568,13.0736234 C14.3342675,13.0880295 14.3839862,13.0704811 14.4105191,13.0305801 C14.433925,12.9912833 14.4478438,12.9470691 14.4511695,12.9014505 L14.5061671,12.5714525 C14.5065414,12.5524591 14.5152611,12.5345944 14.5300044,12.522615 C14.5447478,12.5106356 14.5640184,12.5057573 14.5826855,12.5092789 C14.7189839,12.5092789 14.8552823,12.5092789 14.9915806,12.5092789 C15.0154926,12.4375402 14.9437566,12.3705841 14.8744118,12.3394973 C14.8050671,12.3084106 14.7189839,12.2844977 14.6855071,12.2175415 C14.6137711,12.0788467 14.7978935,11.8851522 14.7189839,11.7655877 C14.6400743,11.6460232 14.4702991,11.7608051 14.3507392,11.8181961 Z" id="Path" opacity="0.2"></path>
                    <path d="M11.8973685,12.8871027 C11.8825873,12.8951326 11.8663047,12.9000175 11.8495445,12.9014505 C11.8208501,12.9014505 11.8017205,12.8703637 11.7873733,12.8440595 C11.7228109,12.7005821 11.7610701,12.5140615 11.6582486,12.394497 C11.5575365,12.5191354 11.4768619,12.6587076 11.4191286,12.8081902 L11.0293631,12.6886257 C10.993473,12.8408291 11.0201787,13.0010699 11.1034903,13.1334056 C11.0352752,13.1624078 10.9735022,13.2046752 10.9217591,13.2577527 C10.8681718,13.3117209 10.8496594,13.3913271 10.8739351,13.4634036 C10.9630686,13.4852026 11.054875,13.4940615 11.1465319,13.4897078 C11.1329522,13.6601071 11.1434166,13.8315696 11.1776175,13.9990526 C11.1786915,14.0244629 11.1909462,14.0480978 11.2110943,14.0636174 C11.2397887,14.0827478 11.2756566,14.0636174 11.304351,14.0492697 C11.438908,13.9659218 11.5493608,13.8488704 11.6247718,13.7097065 L11.7682437,14.0540523 C11.7783165,14.090402 11.8012631,14.1218485 11.8328061,14.14253 C11.8785167,14.1578088 11.9287634,14.140074 11.9547573,14.0994868 C11.9775617,14.0588808 11.9921847,14.0141979 11.9977989,13.9679658 L12.0504053,13.6403591 C12.0507796,13.6213657 12.0594992,13.603501 12.0742426,13.5915216 C12.0889859,13.5795422 12.1082566,13.5746639 12.1269237,13.5781856 C12.263222,13.5781856 12.3995204,13.5781856 12.53821,13.5781856 C12.5597308,13.5064469 12.4879948,13.4370995 12.41865,13.4060127 C12.3493052,13.3749259 12.2656132,13.3534043 12.2297452,13.2864482 C12.1580092,13.1453621 12.3421316,12.9540589 12.263222,12.8344944 C12.1843124,12.7149299 12.0169285,12.8273205 11.8973685,12.8871027 Z" id="Path" opacity="0.3"></path>
                    <path d="M9.60659942,6.42344578 C9.59308351,6.43209689 9.57718992,6.43627957 9.56116663,6.43540223 C9.53247223,6.43540223 9.51095144,6.40670675 9.49899544,6.38040256 C9.43443306,6.23692516 9.47269225,6.05040454 9.36987067,5.92844874 C9.26963074,6.05341083 9.18900019,6.19290697 9.13075072,6.34214192 L8.74098521,6.22257742 C8.70482006,6.37477162 8.7315437,6.53511956 8.81511239,6.66735736 C8.74704772,6.69663352 8.68532517,6.73886633 8.63338123,6.79170445 C8.57979393,6.84567261 8.56128155,6.92527887 8.58555724,6.99735539 C8.67477346,7.01882135 8.76642373,7.02846911 8.85815398,7.02605087 C8.8433717,7.19643686 8.85384669,7.36807211 8.88923958,7.53539565 C8.89152474,7.55994856 8.90255701,7.58286262 8.92032517,7.59996048 C8.94901956,7.6190908 8.98727875,7.59996048 9.01597315,7.58322145 C9.15093921,7.50142135 9.26156935,7.3850076 9.33639388,7.24604955 L9.47986585,7.59039532 C9.49063793,7.62576823 9.51348771,7.65623575 9.54442823,7.67648176 C9.58959062,7.69056697 9.6387003,7.67419646 9.6663794,7.63582983 C9.68951342,7.59554603 9.70339878,7.55062111 9.70702979,7.50430888 L9.76202738,7.17670214 C9.76337342,7.15918136 9.77004886,7.14249214 9.78115698,7.12887634 C9.79785116,7.11698338 9.81807582,7.1110843 9.83854577,7.11213731 C9.97484413,7.11213731 10.1111425,7.11213731 10.2474409,7.11213731 C10.2713529,7.03800732 10.1996169,6.9710512 10.1302721,6.93996443 C10.0609273,6.90887766 9.97484413,6.88496476 9.94136734,6.81800864 C9.86963136,6.67931382 10.0537537,6.48561932 9.97484413,6.36605482 C9.89593455,6.24649032 9.72615939,6.3708374 9.60659942,6.42344578 Z" id="Path" opacity="0.2"></path>
                    <path d="M14.1164016,14.859917 C14.0972505,14.8732676 14.0726674,14.8760857 14.0509921,14.8674152 C14.0293169,14.8587448 14.0134587,14.8397496 14.0087976,14.8168738 C13.9418441,14.6733964 13.9801032,14.4868758 13.8772817,14.36492 C13.7770417,14.4898821 13.6964112,14.6293782 13.6381617,14.7786132 L13.2507874,14.6590487 C13.2136382,14.8109123 13.2395137,14.9713462 13.3225234,15.1038286 C13.2551051,15.1342669 13.1935852,15.1763611 13.1407922,15.2281757 C13.0872049,15.2821439 13.0686925,15.3617501 13.0929682,15.4338266 C13.1828752,15.4558554 13.2755037,15.4647158 13.3679562,15.4601308 C13.3534917,15.6312114 13.363151,15.803476 13.3966506,15.9718669 C13.3988735,15.996957 13.410903,16.0201576 13.4301274,16.0364317 C13.4618921,16.0487835 13.4978976,16.0423207 13.5233841,16.0196927 C13.6577742,15.9371792 13.7682387,15.8209399 13.8438049,15.6825208 L13.9872768,16.0268666 C13.9980489,16.0622395 14.0208987,16.092707 14.0518392,16.112953 C14.0975498,16.1282318 14.1477965,16.1104969 14.1737904,16.0699098 C14.1961594,16.0287337 14.2084513,15.9828422 14.2096584,15.9359975 L14.2622648,15.6059995 C14.2646677,15.5894725 14.2712524,15.5738333 14.2813944,15.560565 C14.2975884,15.5476745 14.3181987,15.5416629 14.3387832,15.543826 C14.4750815,15.543826 14.6137711,15.543826 14.7500695,15.543826 C14.7739815,15.4720873 14.6998543,15.4051312 14.6305095,15.3740444 C14.5611647,15.3429576 14.4774727,15.3190447 14.4416047,15.2520886 C14.3698688,15.1133938 14.5563823,14.9196993 14.4774727,14.8001348 C14.3985632,14.6805703 14.2359616,14.8001348 14.1164016,14.859917 Z" id="Path" opacity="0.3"></path>
                </g>
            </g>
        </g>
    </g>
</svg>